<?xml version="1.0" encoding="UTF-8"?>
<svg id="Layer_1" data-name="Layer 1" xmlns="http://www.w3.org/2000/svg" viewBox="0 0 792 792">
  <defs>
    <style>
      .cls-1 {
        fill: #70ccd8;
      }

      .cls-1, .cls-2, .cls-3 {
        stroke-width: 0px;
      }

      .cls-2 {
        fill: #fdb614;
      }

      .cls-3 {
        fill: #27aae1;
      }
    </style>
  </defs>
  <path class="cls-3" d="M294.77,486.7c6.75,6.04,37.9,29.13,82.64,22.75.76-.11,1.54.09,1.78-1.75.58-4.35-2.71-7.94-7.1-7.94h-33.93c-8.21.7-9.65-4.11-9.69-9.32,0-.03,0-.07,0-.1,0-.35.01-.7.04-1.04.26-4.19,2.14-8.1,5.25-11.51.01-.01.01-.03.04-.03,4.04-4.44,5.57-7.07,17.54-10.22,1.21-.32,2.49-.35,3.71-.08h0c7.57,1.81,32.71,4.97,24.2,4.08-65.6-6.87,16.72-5.21,24.59-5.21,20.12,0,37.24,3.73,53.14-.89,11.99-3.46,22.34-8.03,30.4-13.42,1.15-.41,2.88-1.02,4.02-1.43l.24-.02c.33-.03.67-.04.99-.06.43-.03.85-.04,1.28-.06.46-.01.9-.01,1.36-.01,7.76,0,15.21,1.64,22.15,4.69,3.2,1.39,6.28,3.08,9.24,5.04,2.52,1.67,3.42,4.95,2.07,7.67-17.64,35.15-51.64,62.33-93.33,73.79-2.42.67-4.86,1.28-7.33,1.84-1.84.42-3.69.79-5.55,1.14-10.14,1.93-20.68,2.95-31.48,2.95-30.7,0-59.25-8.21-83.06-22.31-1.2-.7-2.37-1.41-3.53-2.14-8.32-5.22-16-11.16-22.96-17.74-10.41-9.84-19.19-21.08-25.94-33.37-1.29-2.35-.89-5.3,1.06-7.18,2.05-1.98,4.43-3.49,7.01-4.43,2.32-.85,4.5-.53,6.54,1.75,6.28,7.04,22.96,23.69,24.6,24.54"/>
  <path class="cls-3" d="M322.88,488.94c.12,1.83.61,3.59,1.43,5.26l-35.97-27.02c-5.06-3.8-5.99-10.95-2.07-15.91h0c3.49-4.41,9.93-5.24,14.44-1.85l31.21,23.44c-6,4.6-9.42,10.22-9.03,16.08Z"/>
  <path class="cls-3" d="M361.59,461.21c-1.89.09-3.81.28-5.76.56-8.1,1.19-15.38,3.89-21.18,7.55l-17.76-13.16c-3.17-2.35-4.1-6.85-2.13-10.29h0c4.2-7.36,13.51-9.36,20.28-4.34l26.55,19.69Z"/>
  <circle class="cls-1" cx="384.62" cy="382.67" r="14.26"/>
  <rect class="cls-1" x="369.32" y="380.14" width="4.44" height="14.05" transform="translate(137.96 -95.93) rotate(18.02)"/>
  <rect class="cls-1" x="394.13" y="366.93" width="4.44" height="14.05" transform="translate(860.85 89.04) rotate(105.14)"/>
  <path class="cls-1" d="M419.03,442.9c2.43,7.73-2.86,15.76-10.92,16.51-4.84.45-9.84.8-14.97,1.05-8.64.41-16.97.49-24.73.26,2.6-7.47,4.81-16.07,6.44-25.34.59-3.37.59-6.83.03-10.2l-1.48-8.87c-.89-5.33-5.19-9.5-10.63-10.31l-22.08-3.26c-.59-.09-1.14-.26-1.59-.59-1.11-.81-3.74-8.46-2.67-5.55l.94,1.34c-1.57-1.03-2.45-6.12,3.93-3.01l53.1,7.83c3.21.47,6.25-1.44,7.16-4.44.05-.12.08-.26.11-.38l7.68-28.33c.56-2.31,6.05-15.31,7.84-17.34l2.59-3.48c2.67-3-.4,12.95-1.02,15.49l-3.6,18.51-2.96,12.31h0c-.97,4.01-1.12,8.18-.44,12.26l3.29,19.02s-.04,0,0,0c1.08,6,2.42,11.55,3.98,16.49Z"/>
  <path class="cls-1" d="M498.87,384.34c-14.78,10.08-25.58,29.93-28.18,53.58h-27.61c-10.59-11.86-17.55-32.09-17.55-55.03,0-12.54,2.08-24.27,5.7-34.25.47-1.3,2.4-.95,2.41.44.12,27.75,9.33,49.12,24.12,51.73,10.15,1.8,20.86-5.61,29.69-18.84,2.68-4.02,8.33-4.64,11.75-1.23h0c1.05,1.05.89,2.79-.34,3.62Z"/>
  <path class="cls-1" d="M475.33,378.47c1.6,9.76-6.7,18.07-16.47,16.47-5.91-.97-10.68-5.72-11.65-11.63-1.61-9.76,6.72-18.09,16.48-16.48,5.91.97,10.66,5.74,11.63,11.65Z"/>
  <path class="cls-1" d="M474.8,455.15c-3.69,2.05-8.2,3.94-13.29,5.55l-4.83-6.33-9.94,5.65c-.77.43-3.98,3.09-6.65,4.97-3.38.33-6.64.47-9.68.45.5-2.16,3.34-5.94,3.72-6.8l6.04-11.2,3.24-7.54h27.26l2.94,10.84,1.2,4.43Z"/>
  <path class="cls-2" d="M541.76,450.62c.8-7.1,1-14.39.61-21.77-4.16-77.8-74.25-137.29-156.51-132.89-82.26,4.4-145.56,71.03-141.39,148.83-1.91-7.4-3.1-15.03-3.52-22.88-3.96-73.93,61.61-137.54,146.45-142.08,84.8-4.54,156.78,51.71,160.74,125.64.84,15.66-1.45,30.87-6.38,45.14Z"/>
  <path class="cls-2" d="M217.99,390.24c6.82.25,13,1.51,17.67,3.39-4.68,1.38-10.62,2.08-17.04,1.85-6.81-.25-12.99-1.51-17.66-3.39,4.68-1.38,10.6-2.08,17.02-1.85Z"/>
  <path class="cls-2" d="M238.4,336.04c6.14,2.98,11.28,6.63,14.79,10.24-4.84-.63-10.55-2.39-16.33-5.19-6.13-2.98-11.27-6.63-14.78-10.24,4.84.63,10.54,2.38,16.32,5.19Z"/>
  <path class="cls-2" d="M276.38,296.47c3.9,5.6,6.62,11.29,7.92,16.16-3.92-2.91-8.05-7.23-11.73-12.5-3.9-5.59-6.61-11.28-7.91-16.15,3.92,2.91,8.04,7.22,11.72,12.49Z"/>
  <path class="cls-2" d="M329.22,267.01c3.2,6.03,5.21,12.01,5.91,16.99-3.54-3.36-7.12-8.15-10.13-13.82-3.2-6.02-5.2-12-5.9-16.98,3.54,3.36,7.11,8.14,10.13,13.81Z"/>
  <path class="cls-2" d="M387.21,256.28c.34,6.81-.38,13.08-1.86,17.9-1.78-4.54-2.99-10.4-3.31-16.81-.34-6.8.38-13.07,1.86-17.88,1.78,4.54,2.99,10.39,3.31,16.8Z"/>
  <path class="cls-2" d="M448.69,263.17c-2.11,6.49-5.02,12.09-8.12,16.06-.04-4.88.91-10.78,2.9-16.89,2.11-6.48,5.02-12.08,8.11-16.05.04,4.88-.91,10.77-2.9,16.88Z"/>
  <path class="cls-2" d="M550.21,341.42c-5.46,4.09-11.06,6.99-15.88,8.46,2.78-4.01,6.95-8.29,12.09-12.14,5.45-4.08,11.05-6.99,15.87-8.45-2.78,4.01-6.94,8.28-12.08,12.13Z"/>
  <path class="cls-2" d="M569.58,397.67c-6.77.88-13.07.65-17.99-.45,4.39-2.13,10.13-3.8,16.5-4.62,6.75-.87,13.06-.65,17.97.45-4.39,2.13-10.12,3.8-16.49,4.62Z"/>
  <path class="cls-2" d="M507.95,291.66c-4.68,4.97-9.69,8.79-14.19,11.06,2.04-4.43,5.42-9.36,9.83-14.04,4.67-4.96,9.69-8.78,14.18-11.05-2.04,4.43-5.42,9.35-9.82,14.03Z"/>
  <path class="cls-2" d="M263.31,389.82s79.02-145.78,222.19-44.92c0,0-120.19-75.67-215.55,41.73l-6.64,3.19Z"/>
</svg>